<svg width="90" height="19" viewBox="0 0 90 19" fill="none" xmlns="http://www.w3.org/2000/svg">
<rect x="10.133" y="0.993805" width="4.0575" height="2.91708" fill="#D86868"/>
<rect x="4.04675" y="0.993805" width="4.0575" height="2.91708" rx="1.45854" fill="#D86868"/>
<rect x="4.04675" y="14.6068" width="5.07188" height="2.91708" rx="1.45854" fill="#D86868"/>
<rect x="10.133" y="14.6068" width="5.07188" height="2.91708" rx="1.45854" fill="#D86868"/>
<rect x="13.1761" y="10.7174" width="5.07188" height="2.91708" rx="1.45854" fill="#D86868"/>
<rect x="1.00362" y="10.7174" width="5.07188" height="2.91708" rx="1.45854" fill="#D86868"/>
<rect x="13.1761" y="4.88324" width="5.07188" height="3.88944" rx="1.94472" fill="#D86868"/>
<ellipse cx="9.11863" cy="9.25886" rx="8.11501" ry="7.2927" fill="#D86868"/>
<path fill-rule="evenodd" clip-rule="evenodd" d="M6.58301 0.000976562C8.39764 0.00114666 9.86914 1.47244 9.86914 3.28711V15.7178C9.86886 17.5322 8.39747 19.0037 6.58301 19.0039C4.7684 19.0039 3.29715 17.5323 3.29688 15.7178V15.2295C3.29688 15.1653 3.24485 15.1133 3.18066 15.1133C1.42402 15.1131 0 13.6893 0 11.9326C3.98569e-05 11.3826 0.13989 10.8655 0.385807 10.4144C0.682282 9.87058 0.682243 9.13336 0.385795 8.58953C0.139904 8.13845 7.98728e-05 7.62128 0 7.07129C0.000127292 5.31472 1.4241 3.89077 3.18066 3.89062C3.24485 3.89062 3.29688 3.8386 3.29688 3.77441V3.28711C3.29688 1.47233 4.76823 0.000976562 6.58301 0.000976562ZM6.58301 1.50098C5.59666 1.50098 4.79688 2.30076 4.79688 3.28711V3.88525C4.79688 3.88822 4.79928 3.89062 4.80225 3.89062C4.80521 3.89062 4.80762 3.89303 4.80762 3.896V4.64062C4.80762 5.05484 4.47183 5.39062 4.05762 5.39062H3.18066C2.25253 5.39077 1.50013 6.14315 1.5 7.07129C1.50024 7.94131 2.16145 8.65702 3.00879 8.74316L3.18066 8.75195H4.05762C4.47183 8.75195 4.80762 9.08774 4.80762 9.50195C4.80762 9.91617 4.47183 10.252 4.05762 10.252H3.18066C2.25253 10.2521 1.50013 11.0045 1.5 11.9326C1.5 12.8609 2.25245 13.6131 3.18066 13.6133H4.05762C4.47183 13.6133 4.80762 13.9491 4.80762 14.3633V15.1079C4.80762 15.1109 4.80521 15.1133 4.80225 15.1133C4.79928 15.1133 4.79688 15.1157 4.79688 15.1187V15.7178C4.79715 16.7039 5.59683 17.5039 6.58301 17.5039C7.56904 17.5037 8.36886 16.7038 8.36914 15.7178V3.28711C8.36914 2.30087 7.56921 1.50115 6.58301 1.50098Z" fill="black"/>
<path fill-rule="evenodd" clip-rule="evenodd" d="M12.415 19.0029C10.6004 19.0028 9.12891 17.5315 9.12891 15.7168L9.12891 3.28613C9.12919 1.4717 10.6006 0.000169754 12.415 0C14.2296 0 15.7009 1.4716 15.7012 3.28613V3.77441C15.7012 3.8386 15.7532 3.89062 15.8174 3.89062C17.574 3.89077 18.998 5.31462 18.998 7.07129C18.998 7.62129 18.8582 8.13844 18.6122 8.58952C18.3158 9.13332 18.3158 9.87055 18.6123 10.4144C18.8581 10.8655 18.998 11.3826 18.998 11.9326C18.9979 13.6892 17.5739 15.1131 15.8174 15.1133C15.7532 15.1133 15.7012 15.1653 15.7012 15.2295V15.7168C15.7012 17.5316 14.2298 19.0029 12.415 19.0029ZM12.415 17.5029C13.4014 17.5029 14.2012 16.7031 14.2012 15.7168V15.1187C14.2012 15.1157 14.1988 15.1133 14.1958 15.1133C14.1928 15.1133 14.1904 15.1109 14.1904 15.1079V14.3633C14.1904 13.9491 14.5262 13.6133 14.9404 13.6133H15.8174C16.7455 13.6131 17.4979 12.8608 17.498 11.9326C17.4978 11.0626 16.8366 10.3469 15.9893 10.2607L15.8174 10.252H14.9404C14.5262 10.252 14.1904 9.91617 14.1904 9.50195C14.1904 9.08774 14.5262 8.75195 14.9404 8.75195H15.8174C16.7455 8.75181 17.4979 7.99943 17.498 7.07129C17.498 6.14304 16.7456 5.39077 15.8174 5.39062H14.9404C14.5262 5.39062 14.1904 5.05484 14.1904 4.64062V3.896C14.1904 3.89303 14.1928 3.89062 14.1958 3.89062C14.1988 3.89062 14.2012 3.88822 14.2012 3.88525V3.28613C14.2009 2.30003 13.4012 1.5 12.415 1.5C11.429 1.50017 10.6292 2.30013 10.6289 3.28613L10.6289 15.7168C10.6289 16.703 11.4288 17.5028 12.415 17.5029Z" fill="black"/>
<path d="M12.3934 8.36375C13.1323 8.73178 13.1323 9.78594 12.3934 10.154L8.02854 12.3281C7.36373 12.6592 6.58269 12.1757 6.58269 11.433L6.58269 7.08474C6.58269 6.34202 7.36373 5.85849 8.02854 6.18963L12.3934 8.36375Z" fill="#FBFBFB"/>
<path d="M23 17.8482V1.15179H29.1449V4.37723H26.1248V7.63114H29.0227V10.7712H26.1248V14.5943H29.3456V17.8482H23Z" fill="black"/>
<path d="M30.3669 17.8482V1.15179H33.5266L34.9406 9.149V1.15179H37.9083V17.8482H34.9057L33.3695 9.5V17.8482H30.3669Z" fill="black"/>
<path d="M39.2699 17.8482V1.15179H42.3424V15.0022H45.5021V17.8482H39.2699Z" fill="black"/>
<path d="M46.2353 17.8482V1.15179H49.203V17.8482H46.2353Z" fill="black"/>
<path d="M53.5934 18C51.3996 18 50.3028 16.2924 50.3028 12.8772V5.6769C50.3028 2.55897 51.5597 1 54.0735 1C55.1093 1 55.9036 1.22768 56.4564 1.68304C57.0092 2.13207 57.3903 2.78981 57.5998 3.65625C57.8093 4.52269 57.914 5.57887 57.914 6.82478H54.9114V5.34487C54.9114 4.98438 54.8649 4.68397 54.7718 4.44364C54.6845 4.19699 54.4983 4.07366 54.2131 4.07366C53.8582 4.07366 53.6225 4.20331 53.5061 4.46261C53.3956 4.72191 53.3403 5.00651 53.3403 5.31641V13.4085C53.3403 13.8575 53.3927 14.2243 53.4974 14.5089C53.608 14.7872 53.8203 14.9263 54.1346 14.9263C54.4604 14.9263 54.6757 14.7872 54.7805 14.5089C54.891 14.2243 54.9463 13.8512 54.9463 13.3895V11.0084H54.1258V8.12444H57.8791V17.8482H56.6484L56.1247 16.4442C55.5893 17.4814 54.7456 18 53.5934 18Z" fill="black"/>
<path d="M59.1011 17.8482V1.15179H62.1561V7.11886H63.605V1.15179H66.66V17.8482H63.605V10.2779H62.1561V17.8482H59.1011Z" fill="black"/>
<path d="M69.3396 17.8482V4.35826H67.5154V1.15179H74.2363V4.35826H72.4121V17.8482H69.3396Z" fill="black"/>
<path d="M75.0917 17.8482V1.15179H81.2366V4.37723H78.2165V7.63114H81.1144V10.7712H78.2165V14.5943H81.4373V17.8482H75.0917Z" fill="black"/>
<path d="M82.4586 17.8482V1.15179H85.6183L87.0323 9.149V1.15179H90V17.8482H86.9974L85.4612 9.5V17.8482H82.4586Z" fill="black"/>
</svg>
